<?xml version="1.0" encoding="utf-8"?>
<!-- Generator: Adobe Illustrator 18.0.0, SVG Export Plug-In . SVG Version: 6.00 Build 0)  -->
<!DOCTYPE svg PUBLIC "-//W3C//DTD SVG 1.1//EN" "http://www.w3.org/Graphics/SVG/1.1/DTD/svg11.dtd">
<svg version="1.1" xmlns="http://www.w3.org/2000/svg" xmlns:xlink="http://www.w3.org/1999/xlink" x="0px" y="0px"
	 viewBox="0 0 400.4 191" enable-background="new 0 0 400.4 191" xml:space="preserve">
<g id="Layer_1" display="none">
	<linearGradient id="SVGID_1_" gradientUnits="userSpaceOnUse" x1="545.7424" y1="-75" x2="545.7424" y2="723.7684">
		<stop  offset="0" style="stop-color:#00A79D"/>
		<stop  offset="1" style="stop-color:#262262"/>
	</linearGradient>
	<rect x="-112.5" y="-82.6" display="inline" fill="url(#SVGID_1_)" width="1316.4" height="800"/>
</g>
<g id="Layer_2">
	<path fill="#FFFFFF" d="M400.4,105.8c0-9.8-13.2-18-31.2-20.4c1.9-2.4,3-5,3-7.8c0-11.7-18.9-21.2-42.3-21.2c-1,0-2,0-2.9,0.1
		c1.9-2.4,2.9-5,2.9-7.7c0-9-11.4-16.8-27.4-19.8c0.1-0.5,0.1-0.9,0.1-1.4c0-11.7-18.9-21.2-42.3-21.2c-8.6,0-16.5,1.3-23.2,3.5
		C229.6,3.9,216.4,0,201.3,0C177.9,0,159,9.5,159,21.2c0,0.1,0,0.3,0,0.4c-2.7-0.3-5.5-0.4-8.4-0.4c-18.7,0-34.5,6-40.1,14.4
		c-2.4-0.2-4.8-0.3-7.3-0.3c-18,0-33.3,5.6-39.4,13.5c-22.3,0.6-40.1,9.8-40.1,21.1c0,0.7,0.1,1.4,0.2,2.1C9.8,75.4,0,82.6,0,91
		c0,9.9,13.6,18.2,31.9,20.5c-8.2,3.9-13.3,9.3-13.3,15.4c0,10,14,18.4,32.8,20.6c0,0.4-0.1,0.8-0.1,1.2c0,11.7,18.9,21.2,42.3,21.2
		c2.8,0,5.6-0.1,8.2-0.4c6.3,7.8,21.5,13.2,39.2,13.2c8.3,0,16-1.2,22.5-3.3c7,6.9,21.3,11.6,37.7,11.6c17.7,0,32.8-5.4,39.2-13.1
		c7.3,3,16.7,4.8,26.9,4.8c23.4,0,42.3-9.5,42.3-21.2c0-0.9-0.1-1.8-0.3-2.7c6.1,1.7,13.1,2.7,20.6,2.7c23.4,0,42.3-9.5,42.3-21.2
		c0-5.2-3.7-9.9-9.9-13.6C383.7,125.8,400.4,116.7,400.4,105.8z"/>
</g>
<g id="Layer_5" display="none">
	<rect x="75.4" y="283" display="inline" fill="#D5D87C" width="221.1" height="274.5"/>
	<rect x="-152.2" y="344.4" display="inline" fill="#918A77" width="164.3" height="203.9"/>
	<rect x="349.2" y="118" display="inline" fill="#999967" width="273" height="439.5"/>
	<rect x="650" y="274.9" display="inline" fill="#D5D87C" width="179.2" height="274.5"/>
	<rect x="894.4" y="118" display="inline" fill="#999967" width="273" height="439.5"/>
</g>
<g id="Layer_3" display="none">
	<rect x="101.3" y="407.5" display="inline" fill="#724F29" width="166.8" height="46.9"/>
	<rect x="100" y="502.5" display="inline" fill="#724F29" width="70.8" height="46.9"/>
	<rect x="210.8" y="502.5" display="inline" fill="#724F29" width="43.8" height="46.9"/>
	<rect x="-133" y="436.9" display="inline" fill="#724F29" width="123.9" height="34.8"/>
	<rect x="-133.9" y="507.5" display="inline" fill="#724F29" width="52.6" height="34.8"/>
	<rect x="-51.6" y="507.5" display="inline" fill="#724F29" width="32.5" height="34.8"/>
	<rect x="381.2" y="159.9" display="inline" fill="#6F8A93" width="205.9" height="75.1"/>
	<rect x="381.2" y="262.6" display="inline" fill="#6F8A93" width="205.9" height="75.1"/>
	<rect x="381.2" y="370" display="inline" fill="#6F8A93" width="205.9" height="75.1"/>
	<rect x="430.4" y="474.3" display="inline" fill="#6F8A93" width="107.3" height="75.1"/>
	<rect x="671" y="399.4" display="inline" fill="#724F29" width="135.1" height="46.9"/>
	<rect x="669.9" y="494.4" display="inline" fill="#724F29" width="57.3" height="46.9"/>
	<rect x="759.7" y="494.4" display="inline" fill="#724F29" width="35.5" height="46.9"/>
	<rect x="926.4" y="159.9" display="inline" fill="#6F8A93" width="205.9" height="75.1"/>
	<rect x="926.4" y="262.6" display="inline" fill="#6F8A93" width="205.9" height="75.1"/>
	<rect x="926.4" y="370" display="inline" fill="#6F8A93" width="205.9" height="75.1"/>
	<rect x="975.7" y="474.3" display="inline" fill="#6F8A93" width="107.3" height="75.1"/>
</g>
<g id="Layer_4" display="none">
	<g display="inline">
		<rect x="-130.8" y="549.4" fill="#615E63" width="1335.4" height="171"/>
		<rect x="-120.7" y="626.2" fill="#EEE934" width="35.5" height="14.9"/>
		<rect x="-72.6" y="626.2" fill="#EEE934" width="35.5" height="14.9"/>
		<rect x="-29.1" y="626.2" fill="#EEE934" width="35.5" height="14.9"/>
		<rect x="19" y="626.2" fill="#EEE934" width="35.5" height="14.9"/>
		<rect x="65.2" y="626.2" fill="#EEE934" width="35.5" height="14.9"/>
		<rect x="113.2" y="626.2" fill="#EEE934" width="35.5" height="14.9"/>
		<rect x="156.8" y="626.2" fill="#EEE934" width="35.5" height="14.9"/>
		<rect x="204.9" y="626.2" fill="#EEE934" width="35.5" height="14.9"/>
		<rect x="249.4" y="626.2" fill="#EEE934" width="35.5" height="14.9"/>
		<rect x="297.5" y="626.2" fill="#EEE934" width="35.5" height="14.9"/>
		<rect x="341.1" y="626.2" fill="#EEE934" width="35.5" height="14.9"/>
		<rect x="389.2" y="626.2" fill="#EEE934" width="35.5" height="14.9"/>
		<rect x="433.4" y="626.2" fill="#EEE934" width="35.5" height="14.9"/>
		<rect x="481.5" y="626.2" fill="#EEE934" width="35.5" height="14.9"/>
		<rect x="525" y="626.2" fill="#EEE934" width="35.5" height="14.9"/>
		<rect x="573.1" y="626.2" fill="#EEE934" width="35.5" height="14.9"/>
		<rect x="620.1" y="626.2" fill="#EEE934" width="35.5" height="14.9"/>
		<rect x="668.2" y="626.2" fill="#EEE934" width="35.5" height="14.9"/>
		<rect x="711.8" y="626.2" fill="#EEE934" width="35.5" height="14.9"/>
		<rect x="759.8" y="626.2" fill="#EEE934" width="35.5" height="14.9"/>
		<rect x="806" y="626.2" fill="#EEE934" width="35.5" height="14.9"/>
		<rect x="854.1" y="626.2" fill="#EEE934" width="35.5" height="14.9"/>
		<rect x="897.7" y="626.2" fill="#EEE934" width="35.5" height="14.9"/>
		<rect x="945.7" y="626.2" fill="#EEE934" width="35.5" height="14.9"/>
		<rect x="990.3" y="626.2" fill="#EEE934" width="35.5" height="14.9"/>
		<rect x="1038.4" y="626.2" fill="#EEE934" width="35.5" height="14.9"/>
		<rect x="1081.9" y="626.2" fill="#EEE934" width="35.5" height="14.9"/>
		<rect x="1130" y="626.2" fill="#EEE934" width="35.5" height="14.9"/>
		<rect x="1174.2" y="626.2" fill="#EEE934" width="35.5" height="14.9"/>
		<rect x="1222.3" y="626.2" fill="#EEE934" width="35.5" height="14.9"/>
		<rect x="1265.9" y="626.2" fill="#EEE934" width="35.5" height="14.9"/>
		<rect x="1314" y="626.2" fill="#EEE934" width="35.5" height="14.9"/>
	</g>
</g>
</svg>
