<?xml version="1.0" encoding="utf-8"?>
<!-- Generator: Adobe Illustrator 18.0.0, SVG Export Plug-In . SVG Version: 6.00 Build 0)  -->
<!DOCTYPE svg PUBLIC "-//W3C//DTD SVG 1.1//EN" "http://www.w3.org/Graphics/SVG/1.1/DTD/svg11.dtd">
<svg version="1.1" xmlns="http://www.w3.org/2000/svg" xmlns:xlink="http://www.w3.org/1999/xlink" x="0px" y="0px"
	 viewBox="0 0 1317 800" enable-background="new 0 0 1317 800" xml:space="preserve">
<g id="Layer_1" display="none">
	<linearGradient id="SVGID_1_" gradientUnits="userSpaceOnUse" x1="658.202" y1="7.6154" x2="658.202" y2="806.3837">
		<stop  offset="0" style="stop-color:#00A79D"/>
		<stop  offset="1" style="stop-color:#262262"/>
	</linearGradient>
	<rect display="inline" fill="url(#SVGID_1_)" width="1316.4" height="800"/>
</g>
<g id="Layer_2" display="none">
	<path display="inline" fill="#FFFFFF" d="M512.8,188.4c0-9.8-13.2-18-31.2-20.4c1.9-2.4,3-5,3-7.8c0-11.7-18.9-21.2-42.3-21.2
		c-1,0-2,0-2.9,0.1c1.9-2.4,2.9-5,2.9-7.7c0-9-11.4-16.8-27.4-19.8c0.1-0.5,0.1-0.9,0.1-1.4c0-11.7-18.9-21.2-42.3-21.2
		c-8.6,0-16.5,1.3-23.2,3.5c-7.5-5.9-20.7-9.9-35.8-9.9c-23.4,0-42.3,9.5-42.3,21.2c0,0.1,0,0.3,0,0.4c-2.7-0.3-5.5-0.4-8.4-0.4
		c-18.7,0-34.5,6-40.1,14.4c-2.4-0.2-4.8-0.3-7.3-0.3c-18,0-33.3,5.6-39.4,13.5c-22.3,0.6-40.1,9.8-40.1,21.1c0,0.7,0.1,1.4,0.2,2.1
		c-14.2,3.4-24,10.7-24,19.1c0,9.9,13.6,18.2,31.9,20.5c-8.2,3.9-13.3,9.3-13.3,15.4c0,10,14,18.4,32.8,20.6c0,0.4-0.1,0.8-0.1,1.2
		c0,11.7,18.9,21.2,42.3,21.2c2.8,0,5.6-0.1,8.2-0.4c6.3,7.8,21.5,13.2,39.2,13.2c8.3,0,16-1.2,22.5-3.3c7,6.9,21.3,11.6,37.7,11.6
		c17.7,0,32.8-5.4,39.2-13.1c7.3,3,16.7,4.8,26.9,4.8c23.4,0,42.3-9.5,42.3-21.2c0-0.9-0.1-1.8-0.3-2.7c6.1,1.7,13.1,2.7,20.6,2.7
		c23.4,0,42.3-9.5,42.3-21.2c0-5.2-3.7-9.9-9.9-13.6C496.1,208.4,512.8,199.4,512.8,188.4z"/>
</g>
<g id="Layer_5">
	<rect x="240.9" y="365.6" fill="#D5D87C" width="221.1" height="274.5"/>
	<rect x="13.2" y="427" fill="#918A77" width="164.3" height="203.9"/>
	<rect x="514.6" y="127.1" fill="#999967" width="273" height="513"/>
	<rect x="815.4" y="357.5" fill="#D5D87C" width="179.2" height="274.5"/>
	<rect x="1059.8" y="200.6" fill="#999967" width="244.6" height="439.5"/>
</g>
<g id="Layer_3">
	<rect x="326.5" y="490.1" fill="#724F29" width="52.8" height="46.9"/>
	<rect x="393.6" y="490.1" fill="#724F29" width="52.8" height="46.9"/>
	<rect x="260.6" y="490.1" fill="#724F29" width="52.8" height="46.9"/>
	<rect x="266.8" y="396.9" fill="#724F29" width="166.8" height="46.9"/>
	<rect x="265.5" y="585.1" fill="#724F29" width="70.8" height="46.9"/>
	<rect x="376.3" y="585.1" fill="#724F29" width="43.8" height="46.9"/>
	<rect x="32.5" y="519.5" fill="#724F29" width="123.9" height="34.8"/>
	<rect x="31.5" y="590.1" fill="#724F29" width="52.6" height="34.8"/>
	<rect x="113.8" y="590.1" fill="#724F29" width="32.5" height="34.8"/>
	<rect x="546.6" y="176" fill="#6F8A93" width="205.9" height="87.6"/>
	<rect x="546.6" y="295.9" fill="#6F8A93" width="205.9" height="87.6"/>
	<rect x="546.6" y="421.2" fill="#6F8A93" width="205.9" height="87.6"/>
	<rect x="595.9" y="543" fill="#6F8A93" width="107.3" height="87.6"/>
	<rect x="836.4" y="482.1" fill="#724F29" width="135.1" height="46.9"/>
	<rect x="836.4" y="383.6" fill="#724F29" width="135.1" height="46.9"/>
	<rect x="835.4" y="577" fill="#724F29" width="57.3" height="46.9"/>
	<rect x="925.2" y="577" fill="#724F29" width="35.5" height="46.9"/>
	<rect x="1088.5" y="242.5" fill="#6F8A93" width="184.5" height="75.1"/>
	<rect x="1088.5" y="345.3" fill="#6F8A93" width="184.5" height="75.1"/>
	<rect x="1088.5" y="452.6" fill="#6F8A93" width="184.5" height="75.1"/>
	<rect x="1132.7" y="556.9" fill="#6F8A93" width="96.2" height="75.1"/>
</g>
<g id="Layer_4">
	<g>
		<rect x="-18.4" y="632" fill="#615E63" width="1335.4" height="171"/>
		<rect x="-8.3" y="708.8" fill="#EEE934" width="35.5" height="14.9"/>
		<rect x="39.8" y="708.8" fill="#EEE934" width="35.5" height="14.9"/>
		<rect x="83.4" y="708.8" fill="#EEE934" width="35.5" height="14.9"/>
		<rect x="131.5" y="708.8" fill="#EEE934" width="35.5" height="14.9"/>
		<rect x="177.6" y="708.8" fill="#EEE934" width="35.5" height="14.9"/>
		<rect x="225.7" y="708.8" fill="#EEE934" width="35.5" height="14.9"/>
		<rect x="269.3" y="708.8" fill="#EEE934" width="35.5" height="14.9"/>
		<rect x="317.4" y="708.8" fill="#EEE934" width="35.5" height="14.9"/>
		<rect x="361.9" y="708.8" fill="#EEE934" width="35.5" height="14.9"/>
		<rect x="410" y="708.8" fill="#EEE934" width="35.5" height="14.9"/>
		<rect x="453.5" y="708.8" fill="#EEE934" width="35.5" height="14.9"/>
		<rect x="501.6" y="708.8" fill="#EEE934" width="35.5" height="14.9"/>
		<rect x="545.8" y="708.8" fill="#EEE934" width="35.5" height="14.9"/>
		<rect x="593.9" y="708.8" fill="#EEE934" width="35.5" height="14.9"/>
		<rect x="637.5" y="708.8" fill="#EEE934" width="35.5" height="14.9"/>
		<rect x="685.6" y="708.8" fill="#EEE934" width="35.5" height="14.9"/>
		<rect x="732.6" y="708.8" fill="#EEE934" width="35.5" height="14.9"/>
		<rect x="780.7" y="708.8" fill="#EEE934" width="35.5" height="14.9"/>
		<rect x="824.2" y="708.8" fill="#EEE934" width="35.5" height="14.9"/>
		<rect x="872.3" y="708.8" fill="#EEE934" width="35.5" height="14.9"/>
		<rect x="918.5" y="708.8" fill="#EEE934" width="35.5" height="14.9"/>
		<rect x="966.6" y="708.8" fill="#EEE934" width="35.5" height="14.9"/>
		<rect x="1010.1" y="708.8" fill="#EEE934" width="35.5" height="14.9"/>
		<rect x="1058.2" y="708.8" fill="#EEE934" width="35.5" height="14.9"/>
		<rect x="1102.7" y="708.8" fill="#EEE934" width="35.5" height="14.9"/>
		<rect x="1150.8" y="708.8" fill="#EEE934" width="35.5" height="14.9"/>
		<rect x="1194.4" y="708.8" fill="#EEE934" width="35.5" height="14.9"/>
		<rect x="1242.5" y="708.8" fill="#EEE934" width="35.5" height="14.9"/>
		<rect x="1286.7" y="708.8" fill="#EEE934" width="35.5" height="14.9"/>
		<rect x="1334.8" y="708.8" fill="#EEE934" width="35.5" height="14.9"/>
		<rect x="1378.3" y="708.8" fill="#EEE934" width="35.5" height="14.9"/>
		<rect x="1426.4" y="708.8" fill="#EEE934" width="35.5" height="14.9"/>
	</g>
</g>
</svg>
